<svg xmlns="http://www.w3.org/2000/svg" viewBox="0 0 64 64" fill="none">
  <circle cx="32" cy="32" r="30" fill="#10B981" opacity="0.2"/>
  <circle cx="32" cy="32" r="24" fill="#10B981"/>
  <circle cx="32" cy="26" r="8" fill="white" opacity="0.3"/>
  <circle cx="28" cy="26" r="2" fill="#1F2937"/>
  <circle cx="36" cy="26" r="2" fill="#1F2937"/>
  <path d="M28 32C28 32 30 34 32 34C34 34 36 32 36 32" stroke="white" stroke-width="2" stroke-linecap="round"/>
  <circle cx="32" cy="16" r="4" fill="white"/>
  <path d="M32 16L32 12M32 16L28 18M32 16L36 18" stroke="#FBBF24" stroke-width="1.5" stroke-linecap="round"/>
  <rect x="24" y="36" width="4" height="8" rx="2" fill="white" opacity="0.8"/>
  <rect x="36" y="36" width="4" height="8" rx="2" fill="white" opacity="0.8"/>
  <path d="M20 48C20 48 22 46 26 46C28 46 30 47 32 47C34 47 36 46 38 46C42 46 44 48 44 48" stroke="white" stroke-width="2" stroke-linecap="round"/>
</svg>

